<?xml version="1.0" standalone="no"?>
<!DOCTYPE svg PUBLIC "-//W3C//DTD SVG 20010904//EN"
 "http://www.w3.org/TR/2001/REC-SVG-20010904/DTD/svg10.dtd">
<svg version="1.0" xmlns="http://www.w3.org/2000/svg"
 width="500.000000pt" height="500.000000pt" viewBox="0 0 500.000000 500.000000"
 preserveAspectRatio="xMidYMid meet">

<g transform="translate(0.000000,500.000000) scale(0.100000,-0.100000)"
fill="#000000" stroke="none">
<path d="M2407 3570 c-60 -71 -76 -207 -30 -268 41 -56 122 -32 109 32 -16 75
-18 149 -6 191 10 36 10 48 0 60 -19 23 -46 18 -73 -15z"/>
<path d="M2566 3567 c-58 -76 -71 -173 -33 -247 18 -38 27 -45 55 -48 51 -5
66 13 56 68 -7 41 -7 115 -1 215 2 37 0 40 -25 43 -20 2 -32 -5 -52 -31z"/>
<path d="M1725 3361 c-43 -11 -70 -30 -91 -65 -16 -26 -19 -57 -22 -199 -4
-157 -5 -168 -25 -182 -12 -8 -32 -15 -44 -15 -22 0 -43 -26 -43 -54 0 -22 28
-46 55 -46 48 0 55 -20 55 -168 1 -173 9 -216 49 -256 28 -28 37 -31 93 -31
59 0 63 2 72 27 12 35 -14 68 -54 68 -15 0 -32 6 -38 13 -5 6 -12 86 -14 177
-3 108 -9 174 -18 193 -11 22 -11 32 0 55 9 18 15 84 18 192 2 91 9 171 14
178 6 6 20 12 32 12 32 0 66 28 66 55 0 25 -34 56 -60 54 -8 -1 -28 -4 -45 -8z"/>
<path d="M3190 3353 c-42 -29 -10 -93 46 -93 12 0 26 -6 32 -12 5 -7 12 -87
14 -178 3 -108 9 -174 18 -192 11 -23 11 -33 0 -55 -9 -18 -16 -87 -19 -198
l-6 -170 -30 -8 c-67 -20 -85 -42 -67 -81 10 -23 18 -26 60 -26 35 0 59 7 83
23 56 38 63 63 67 247 4 177 8 190 57 190 12 0 30 9 40 20 27 30 10 72 -33 81
-60 12 -62 18 -62 168 -1 172 -9 215 -48 254 -37 37 -119 53 -152 30z"/>
<path d="M2130 3118 c-89 -16 -186 -102 -210 -186 -34 -124 18 -255 127 -319
65 -38 169 -44 241 -13 58 25 123 89 148 147 21 49 22 156 1 205 -8 20 -34 57
-57 82 -67 72 -154 102 -250 84z m130 -110 c98 -50 128 -168 67 -259 -70 -105
-235 -99 -295 11 -29 52 -34 86 -21 133 15 58 42 91 91 116 55 27 103 27 158
-1z"/>
<path d="M2768 3119 c-58 -9 -104 -36 -153 -90 -51 -57 -68 -102 -68 -179 0
-78 19 -126 74 -185 58 -62 125 -89 214 -83 82 6 121 23 180 82 56 56 79 126
72 212 -12 160 -156 269 -319 243z m150 -122 c47 -31 76 -86 76 -147 0 -113
-113 -200 -223 -170 -158 42 -176 262 -27 331 54 26 123 20 174 -14z"/>
</g>
</svg>
